<?xml version="1.0" encoding="UTF-8"?>
<svg width="142px" height="258px" viewBox="0 0 142 258" version="1.1" xmlns="http://www.w3.org/2000/svg" xmlns:xlink="http://www.w3.org/1999/xlink">
    <!-- Generator: Sketch 54.1 (76490) - https://sketchapp.com -->
    <title>Group 2</title>
    <desc>Created with Sketch.</desc>
    <g id="Page-1" stroke="none" stroke-width="1" fill="none" fill-rule="evenodd">
        <g id="Group-2">
            <g id="Group">
                <path d="M12.3060453,258 C89.3060453,258 141.306045,200.244733 141.306045,129 C141.306045,57.7552673 83.550778,5.68434189e-14 12.3060453,5.68434189e-14 C-32.5830475,5.68434189e-14 63.3060453,3.00315328e-13 64.3060453,129 C65.305948,257.987444 -22.7600815,258 12.3060453,258 Z" id="Oval" fill="#848282"></path>
                <ellipse id="Oval" fill-opacity="0.1" fill="#A9A9A9" cx="89.3060453" cy="121.5" rx="3" ry="3.5"></ellipse>
                <path d="M50.8467605,30.9549237 C45.1089068,30.2470998 46.1310605,35.3045524 46.1310605,38.3045524 C46.1310605,41.3045524 47.3039928,41.9699102 46.1310605,43.3045524 C45.1206995,44.4542099 43.4698949,50.475236 45.1310605,52.3045524 C48.5184415,56.0348194 57.9422646,55.0722904 60.4811358,49.029446 C63.9271206,40.8275528 53.7482242,34.2031891 49.0886884,30.4558694 L50.8467605,30.9549237 Z" id="Path" fill-opacity="0.3" fill="#686464" transform="translate(52.801528, 42.480271) rotate(-26.000000) translate(-52.801528, -42.480271) "></path>
                <path d="M59.1602878,60.2520374 C58.3460953,57.4539977 56.8876316,53.6873458 58.831087,51.51596 C60.5352352,49.6119476 64.1728927,53.1843675 66.4762492,52.0780527 C67.9382952,51.3758241 66.327126,48.4027968 67.5444006,47.3309078 C68.2647069,46.6966316 68.7419998,49.2282317 69.7017162,49.2378207 C77.043666,49.3111778 74.6692314,43.9261912 81.0468848,45.5483207 C81.7161772,45.7185525 82.4860612,46.2989808 82.5370435,46.9876985 C83.6330496,61.793586 76.0145797,61.3368129 80.2203807,76.7908732 C80.6664738,78.4300257 84.8679282,80.2826544 83.2742431,80.8708613 C82.7025182,81.0818769 65.3350476,90.9709977 70.3060453,86" id="Path-2" fill-opacity="0.55" fill="#6F6E6E"></path>
                <path d="M83.6769887,28.9149273 C67.4502691,26.2675828 78.6545208,39.6760695 82.8382272,39.8293332 C88.9726028,40.0540567 87.6089497,30.7916793 81.9854571,29.6258608" id="Path-3" fill-opacity="0.6" fill="#625C5C"></path>
                <path d="M92.0558483,61.5810979 C117.733506,53.8823094 74.9227318,39.3259226 91.765171,63.2428613" id="Path-4" fill-opacity="0.5" fill="#787777"></path>
                <path d="M59.9237534,225.997613 C88.4245663,223.474432 99.4334202,187.237733 91.6320899,164.317999 C87.9795598,153.587135 66.7817167,148.18551 66.3060453,148 C65.8546322,147.82395 59.103994,185.516353 50.3060453,208 C41.3060453,231 56.5067996,226.300116 59.9237534,225.997613 Z" id="Path-6" fill-opacity="0.25" fill="#777575"></path>
                <ellipse id="Oval" fill-opacity="0.25" fill="#777575" cx="77.5" cy="85.5" rx="14.5" ry="9.5"></ellipse>
            </g>
        </g>
    </g>
</svg>