<?xml version="1.0" encoding="UTF-8" standalone="no"?>
<svg
   xmlns:dc="http://purl.org/dc/elements/1.1/"
   xmlns:cc="http://creativecommons.org/ns#"
   xmlns:rdf="http://www.w3.org/1999/02/22-rdf-syntax-ns#"
   xmlns:svg="http://www.w3.org/2000/svg"
   xmlns="http://www.w3.org/2000/svg"
   xmlns:sodipodi="http://sodipodi.sourceforge.net/DTD/sodipodi-0.dtd"
   xmlns:inkscape="http://www.inkscape.org/namespaces/inkscape"
   version="1.1"
   x="0px"
   y="0px"
   viewBox="0 0 100 125"
   enable-background="new 0 0 100 100"
   xml:space="preserve"
   id="svg2"
   inkscape:version="0.91 r13725"
   sodipodi:docname="Weather Icon.svg"><metadata
     id="metadata48"><rdf:RDF><cc:Work
         rdf:about=""><dc:format>image/svg+xml</dc:format><dc:type
           rdf:resource="http://purl.org/dc/dcmitype/StillImage" /></cc:Work></rdf:RDF></metadata><defs
     id="defs46" /><sodipodi:namedview
     pagecolor="#ffffff"
     bordercolor="#666666"
     borderopacity="1"
     objecttolerance="10"
     gridtolerance="10"
     guidetolerance="10"
     inkscape:pageopacity="0"
     inkscape:pageshadow="2"
     inkscape:window-width="1920"
     inkscape:window-height="1058"
     id="namedview44"
     showgrid="false"
     inkscape:zoom="3.776"
     inkscape:cx="-0.57270132"
     inkscape:cy="75.639004"
     inkscape:window-x="1437"
     inkscape:window-y="15"
     inkscape:window-maximized="0"
     inkscape:current-layer="svg2" /><g
     id="g4"
     transform="translate(-0.26483051,14.036017)"><path
       d="m 58.585,35.762 6.475,0.398 -6.037,2.381 c -0.098,-0.942 -0.245,-1.869 -0.438,-2.779 z m -1.18,-3.977 6.455,-0.619 -5.587,3.293 C 58.03,33.548 57.74,32.655 57.405,31.785 Z m -1.792,-3.743 6.282,-1.622 -5.004,4.127 C 56.51,29.688 56.082,28.852 55.613,28.042 Z m -2.344,-3.401 13.869,-7.226 -11.932,9.95 c -0.589,-0.95 -1.236,-1.86 -1.937,-2.724 z M 49.974,21.247 72.151,2.261 52.765,24.038 C 51.904,23.04 50.972,22.107 49.974,21.247 Z M 46.745,18.867 58.179,5.559 49.489,20.84 c -0.87,-0.714 -1.786,-1.374 -2.744,-1.973 z M 43.464,17.119 49.753,7.788 45.969,18.397 C 45.16,17.929 44.323,17.502 43.464,17.119 Z m -3.912,-1.381 4.006,-7.816 -1.331,8.684 C 41.356,16.271 40.464,15.98 39.552,15.738 Z m -4.081,-0.749 2.381,-6.038 0.397,6.475 c -0.909,-0.193 -1.836,-0.34 -2.778,-0.437 z m -4.148,-0.103 1.408,-6.337 1.407,6.337 c -0.466,-0.024 -0.936,-0.037 -1.407,-0.037 -0.472,0 -0.941,0.013 -1.408,0.037 z m -4.111,0.54 0.398,-6.475 2.381,6.038 c -0.941,0.097 -1.869,0.244 -2.779,0.437 z m -3.977,1.18 -0.619,-6.455 3.294,5.587 c -0.911,0.242 -1.804,0.533 -2.675,0.868 z m -3.742,1.792 -1.621,-6.282 4.127,5.003 c -0.861,0.383 -1.697,0.81 -2.506,1.279 z m -3.415,2.356 -2.586,-5.954 4.861,4.298 c -0.788,0.512 -1.547,1.065 -2.275,1.656 z m -3.005,2.858 -3.486,-5.477 5.477,3.486 c -0.699,0.629 -1.364,1.293 -1.991,1.991 z m -2.524,3.291 -4.298,-4.862 5.954,2.586 c -0.591,0.728 -1.143,1.487 -1.656,2.276 z M 8.57,30.547 3.567,26.42 9.848,28.042 C 9.38,28.852 8.952,29.688 8.57,30.547 Z M 7.188,34.459 1.602,31.165 8.057,31.784 C 7.722,32.655 7.432,33.547 7.188,34.459 Z M 6.44,38.541 0.403,36.16 6.878,35.761 c -0.193,0.91 -0.34,1.838 -0.438,2.78 z M 6.337,42.688 0,41.28 6.337,39.872 C 6.312,40.339 6.3,40.808 6.3,41.28 c 0,0.472 0.012,0.942 0.037,1.408 z M 6.878,46.799 0.403,46.4 6.44,44.02 c 0.098,0.941 0.245,1.869 0.438,2.779 z m 1.18,3.976 -6.456,0.619 5.587,-3.294 c 0.243,0.913 0.533,1.805 0.869,2.675 z M 9.849,54.518 3.567,56.14 8.57,52.013 c 0.382,0.86 0.81,1.696 1.279,2.505 z m -0.366,2.344 1.065,-1.205 c 0.089,0.138 0.18,0.274 0.271,0.409 -0.459,0.245 -0.905,0.51 -1.336,0.796 z"
       id="path6"
       inkscape:connector-curvature="0"
       style="fill:#ffd42a" /><path
       d="m 9.914,41.28 c 0,-12.602 10.216,-22.817 22.817,-22.817 12.439,0 22.553,9.954 22.812,22.331 -2.644,1.213 -5.014,2.919 -6.989,5 -1.877,-0.574 -3.867,-0.882 -5.926,-0.882 -7.799,0 -14.562,4.409 -17.942,10.868 -2.015,-0.961 -4.27,-1.5 -6.648,-1.5 -1.288,0 -2.539,0.158 -3.735,0.455 C 11.543,50.963 9.914,46.312 9.914,41.28 Z"
       id="path8"
       inkscape:connector-curvature="0"
       style="fill:#ffcc00" /><path
       d="m 83.893,59.657 c 1.524,-0.798 3.259,-1.249 5.099,-1.249 6.08,0 11.009,4.928 11.009,11.009 0,1.729 -0.398,3.364 -1.108,4.821 l -19.802,0 -0.049,-0.102 -0.092,0.102 -71.858,0 C 6.521,72.849 6.205,71.329 6.205,69.735 c 0,-6.534 5.298,-11.832 11.832,-11.832 3.284,0 6.255,1.338 8.399,3.498 1.699,-7.371 8.305,-12.867 16.191,-12.867 2.516,0 4.9,0.559 7.037,1.559 3.462,-4.687 9.025,-7.727 15.299,-7.727 9.919,10e-4 18.063,7.598 18.93,17.291 z"
       id="path10"
       inkscape:connector-curvature="0"
       style="fill:#b3b3b3" /><path
       d="m 52.361,78.836 c 0.342,-1.14 3.561,-5.177 3.615,-5.177 0.02,0 0.853,4.037 0.511,5.177 -0.342,1.139 -1.543,2.062 -2.682,2.062 -1.139,0 -1.785,-0.923 -1.444,-2.062 z"
       id="path12"
       inkscape:connector-curvature="0"
       style="clip-rule:evenodd;fill-rule:evenodd;fill:#2ad4ff" /><path
       d="m 57.251,84.268 c 0.342,-1.139 3.561,-5.176 3.615,-5.176 0.02,0 0.852,4.037 0.51,5.176 -0.342,1.14 -1.543,2.063 -2.682,2.063 -1.139,0 -1.785,-0.924 -1.443,-2.063 z"
       id="path14"
       inkscape:connector-curvature="0"
       style="clip-rule:evenodd;fill-rule:evenodd;fill:#2ad4ff" /><path
       d="m 65.399,78.836 c 0.342,-1.14 3.561,-5.177 3.615,-5.177 0.02,0 0.852,4.037 0.51,5.177 -0.342,1.139 -1.542,2.062 -2.682,2.062 -1.138,0 -1.784,-0.923 -1.443,-2.062 z"
       id="path16"
       inkscape:connector-curvature="0"
       style="clip-rule:evenodd;fill-rule:evenodd;fill:#2ad4ff" /><path
       d="m 70.288,84.268 c 0.342,-1.139 3.561,-5.176 3.616,-5.176 0.02,0 0.852,4.037 0.51,5.176 -0.342,1.14 -1.542,2.063 -2.682,2.063 -1.14,0 -1.786,-0.924 -1.444,-2.063 z"
       id="path18"
       inkscape:connector-curvature="0"
       style="clip-rule:evenodd;fill-rule:evenodd;fill:#2ad4ff" /><path
       d="m 78.438,78.836 c 0.342,-1.14 3.561,-5.177 3.616,-5.177 0.02,0 0.852,4.037 0.51,5.177 -0.342,1.139 -1.543,2.062 -2.682,2.062 -1.14,0 -1.786,-0.923 -1.444,-2.062 z"
       id="path20"
       inkscape:connector-curvature="0"
       style="clip-rule:evenodd;fill-rule:evenodd;fill:#2ad4ff" /><path
       d="m 83.327,84.268 c 0.342,-1.139 3.561,-5.176 3.615,-5.176 0.02,0 0.852,4.037 0.51,5.176 -0.342,1.14 -1.542,2.063 -2.682,2.063 -1.138,0 -1.785,-0.924 -1.443,-2.063 z"
       id="path22"
       inkscape:connector-curvature="0"
       style="clip-rule:evenodd;fill-rule:evenodd;fill:#2ad4ff" /><path
       d="m 91.476,78.836 c 0.342,-1.14 3.561,-5.177 3.615,-5.177 0.02,0 0.852,4.037 0.511,5.177 -0.342,1.139 -1.542,2.062 -2.682,2.062 -1.14,0 -1.786,-0.923 -1.444,-2.062 z"
       id="path24"
       inkscape:connector-curvature="0"
       style="clip-rule:evenodd;fill-rule:evenodd;fill:#2ad4ff" /><path
       d="m 53.828,95.676 c 0.342,-1.139 3.561,-5.176 3.616,-5.176 0.019,0 0.851,4.037 0.51,5.176 -0.342,1.141 -1.543,2.063 -2.682,2.063 -1.139,0 -1.786,-0.923 -1.444,-2.063 z"
       id="path26"
       inkscape:connector-curvature="0"
       style="clip-rule:evenodd;fill-rule:evenodd;fill:#2ad4ff" /><path
       d="m 61.978,90.244 c 0.342,-1.14 3.561,-5.176 3.615,-5.176 0.02,0 0.852,4.036 0.51,5.176 -0.342,1.139 -1.543,2.062 -2.682,2.062 -1.139,0 -1.786,-0.923 -1.443,-2.062 z"
       id="path28"
       inkscape:connector-curvature="0"
       style="clip-rule:evenodd;fill-rule:evenodd;fill:#2ad4ff" /><path
       d="m 66.866,95.676 c 0.342,-1.139 3.561,-5.176 3.615,-5.176 0.02,0 0.852,4.037 0.51,5.176 -0.342,1.141 -1.542,2.063 -2.682,2.063 -1.138,0 -1.785,-0.923 -1.443,-2.063 z"
       id="path30"
       inkscape:connector-curvature="0"
       style="clip-rule:evenodd;fill-rule:evenodd;fill:#2ad4ff" /><path
       d="m 75.015,90.244 c 0.342,-1.14 3.561,-5.176 3.616,-5.176 0.02,0 0.852,4.036 0.51,5.176 -0.342,1.139 -1.542,2.062 -2.682,2.062 -1.14,0 -1.786,-0.923 -1.444,-2.062 z"
       id="path32"
       inkscape:connector-curvature="0"
       style="clip-rule:evenodd;fill-rule:evenodd;fill:#2ad4ff" /><path
       d="m 79.904,95.676 c 0.342,-1.139 3.561,-5.176 3.616,-5.176 0.02,0 0.852,4.037 0.51,5.176 -0.342,1.141 -1.543,2.063 -2.682,2.063 -1.139,0 -1.786,-0.923 -1.444,-2.063 z"
       id="path34"
       inkscape:connector-curvature="0"
       style="clip-rule:evenodd;fill-rule:evenodd;fill:#2ad4ff" /><path
       d="m 88.054,90.244 c 0.342,-1.14 3.561,-5.176 3.615,-5.176 0.02,0 0.852,4.036 0.51,5.176 -0.342,1.139 -1.543,2.062 -2.682,2.062 -1.139,0 -1.785,-0.923 -1.443,-2.062 z"
       id="path36"
       inkscape:connector-curvature="0"
       style="clip-rule:evenodd;fill-rule:evenodd;fill:#2ad4ff" /><path
       d="m 95.223,42.765 -1.945,-0.343 1.55,-1.085 c 0.619,-0.434 0.77,-1.287 0.336,-1.906 l -0.072,-0.103 c -0.434,-0.619 -1.287,-0.77 -1.906,-0.336 l -3.995,2.797 -3.624,-0.639 2.555,-2.836 4.871,-0.255 c 0.754,-0.04 1.334,-0.684 1.295,-1.438 l -0.007,-0.125 c -0.04,-0.755 -0.684,-1.335 -1.438,-1.295 l -1.889,0.099 1.322,-1.468 c 0.506,-0.562 0.46,-1.427 -0.102,-1.933 L 92.08,31.816 c 0,0 0,0 0,0 l -0.064,-0.058 c -0.561,-0.506 -1.427,-0.461 -1.933,0.101 l -1.351,1.5 -0.105,-2.012 c -0.039,-0.755 -0.684,-1.334 -1.438,-1.295 l -0.125,0.006 c -0.756,0.04 -1.336,0.684 -1.296,1.438 l 0.255,4.871 -2.855,3.17 -1.598,-3.956 1.906,-4.489 c 0.295,-0.696 -0.029,-1.5 -0.726,-1.795 l -0.115,-0.049 c -0.696,-0.295 -1.499,0.029 -1.795,0.725 l -0.787,1.854 -0.756,-1.871 C 79.014,29.255 78.216,28.916 77.515,29.2 L 77.4,29.247 c -0.001,0 -0.001,0 -0.001,0 l -0.08,0.033 c -0.701,0.283 -1.04,1.081 -0.757,1.782 l 0.74,1.832 -1.74,-0.739 c -0.696,-0.295 -1.5,0.029 -1.795,0.725 l -0.049,0.115 c -0.296,0.696 0.029,1.5 0.725,1.794 l 4.489,1.906 1.43,3.539 -4.044,-0.713 -2.797,-3.995 c -0.434,-0.62 -1.288,-0.77 -1.907,-0.336 l -0.103,0.072 c -0.619,0.434 -0.77,1.287 -0.336,1.906 l 1.155,1.65 -1.987,-0.351 c -0.744,-0.131 -1.455,0.366 -1.586,1.11 L 68.735,39.7 c 0,10e-4 0,10e-4 0,10e-4 l -0.016,0.085 c -0.131,0.744 0.366,1.454 1.111,1.585 l 1.945,0.343 -1.55,1.085 c -0.619,0.434 -0.77,1.287 -0.336,1.906 l 0.071,0.103 c 0.434,0.619 1.287,0.77 1.906,0.336 l 3.996,-2.797 4.119,0.727 -2.707,3.005 -4.87,0.255 c -0.755,0.04 -1.335,0.684 -1.296,1.438 l 0.007,0.125 c 0.04,0.755 0.684,1.335 1.438,1.295 l 1.889,-0.099 -1.322,1.468 c -0.506,0.562 -0.46,1.427 0.102,1.933 l 0.094,0.084 c 0.561,0.506 1.427,0.46 1.933,-0.102 l 1.409,-1.564 0.111,2.134 c 0.039,0.755 0.684,1.335 1.438,1.296 l 0.125,-0.008 c 0.755,-0.039 1.335,-0.684 1.296,-1.438 l -0.256,-4.871 2.855,-3.171 1.599,3.957 -1.905,4.49 c -0.296,0.695 0.029,1.499 0.725,1.795 l 0.115,0.049 c 0.695,0.295 1.5,-0.029 1.795,-0.726 l 0.835,-1.968 0.788,1.952 c 0.283,0.7 1.082,1.04 1.783,0.757 l 0.115,-0.047 c 0.701,-0.283 1.039,-1.082 0.756,-1.782 l -0.74,-1.832 1.742,0.739 c 0.695,0.295 1.499,-0.029 1.795,-0.725 l 0.049,-0.115 c 0.295,-0.696 -0.029,-1.5 -0.726,-1.795 l -4.489,-1.906 -1.516,-3.75 3.785,0.667 2.798,3.995 c 0.434,0.619 1.287,0.77 1.906,0.336 l 0.103,-0.072 c 0.619,-0.434 0.77,-1.287 0.336,-1.907 l -1.226,-1.751 2.073,0.366 c 0.744,0.131 1.454,-0.366 1.586,-1.11 l 0.021,-0.123 c 0.134,-0.742 -0.362,-1.452 -1.107,-1.583 z"
       id="path38"
       inkscape:connector-curvature="0"
       style="clip-rule:evenodd;fill-rule:evenodd;fill:#5599ff" /></g></svg>