<?xml version="1.0" encoding="UTF-8" standalone="no"?>
<svg
   xmlns:dc="http://purl.org/dc/elements/1.1/"
   xmlns:cc="http://creativecommons.org/ns#"
   xmlns:rdf="http://www.w3.org/1999/02/22-rdf-syntax-ns#"
   xmlns:svg="http://www.w3.org/2000/svg"
   xmlns="http://www.w3.org/2000/svg"
   xmlns:sodipodi="http://sodipodi.sourceforge.net/DTD/sodipodi-0.dtd"
   xmlns:inkscape="http://www.inkscape.org/namespaces/inkscape"
   version="1.1"
   x="0px"
   y="0px"
   viewBox="0 0 97.860001 87.377998"
   enable-background="new 0 0 100 100"
   xml:space="preserve"
   id="svg2"
   inkscape:version="0.91 r13725"
   sodipodi:docname="Frustration.svg"
   width="97.860001"
   height="87.377998"><metadata
     id="metadata30"><rdf:RDF><cc:Work
         rdf:about=""><dc:format>image/svg+xml</dc:format><dc:type
           rdf:resource="http://purl.org/dc/dcmitype/StillImage" /><dc:title></dc:title></cc:Work></rdf:RDF></metadata><defs
     id="defs28" /><sodipodi:namedview
     pagecolor="#ffffff"
     bordercolor="#666666"
     borderopacity="1"
     objecttolerance="10"
     gridtolerance="10"
     guidetolerance="10"
     inkscape:pageopacity="0"
     inkscape:pageshadow="2"
     inkscape:window-width="640"
     inkscape:window-height="480"
     id="namedview26"
     showgrid="false"
     fit-margin-top="0"
     fit-margin-left="0"
     fit-margin-right="0"
     fit-margin-bottom="0"
     inkscape:zoom="1.888"
     inkscape:cx="48.424"
     inkscape:cy="31.293"
     inkscape:window-x="0"
     inkscape:window-y="0"
     inkscape:window-maximized="0"
     inkscape:current-layer="svg2" /><polygon
     points="30.762,8.636 19.144,37.961 19.144,37.961 13.534,35.74 25.153,6.415 "
     id="polygon4"
     transform="translate(-1.576,-6.415)" /><polygon
     points="29.622,92.078 23.837,93.793 23.837,93.793 12.106,54.243 17.89,52.527 "
     id="polygon6"
     transform="translate(-1.576,-6.415)" /><polygon
     points="13.369,42.984 7.69,45.019 7.69,45.019 3.446,33.171 9.125,31.136 "
     id="polygon8"
     transform="translate(-1.576,-6.415)" /><polygon
     points="10.657,52.097 6.524,58.018 6.524,58.018 1.576,54.564 5.709,48.643 "
     id="polygon10"
     transform="translate(-1.576,-6.415)" /><polygon
     points="40.637,18.806 29.241,30.202 29.241,30.202 27.345,28.306 38.741,16.911 "
     id="polygon12"
     transform="translate(-1.576,-6.415)" /><polygon
     points="36.409,72.022 34.257,73.622 34.257,73.622 25.542,61.895 27.693,60.295 "
     id="polygon14"
     transform="translate(-1.576,-6.415)" /><polygon
     points="13.094,21.564 12.647,27.805 12.647,27.805 7.298,27.421 7.745,21.18 "
     id="polygon16"
     transform="translate(-1.576,-6.415)" /><path
     d="m 28.33,51.612 c -6.422,-3.804 -8.538,-12.083 -4.742,-18.491 3.8,-6.417 12.079,-8.54 18.5,-4.739 6.406,3.797 8.531,12.079 4.729,18.494 -3.796,6.41 -12.078,8.534 -18.487,4.736 z"
     id="path18"
     inkscape:connector-curvature="0" /><path
     d="m 51.166,87.283 c -3.548,-7.525 -8.418,-26.453 -2.29,-36.155 2.192,-3.473 8.439,-6.488 15.906,-4.995 20.154,4.374 29.869,28.979 33.078,41.15 l -46.694,0 z"
     id="path20"
     inkscape:connector-curvature="0" /></svg>