<?xml version="1.0" encoding="UTF-8" standalone="no"?>
<svg
   xmlns:dc="http://purl.org/dc/elements/1.1/"
   xmlns:cc="http://creativecommons.org/ns#"
   xmlns:rdf="http://www.w3.org/1999/02/22-rdf-syntax-ns#"
   xmlns:svg="http://www.w3.org/2000/svg"
   xmlns="http://www.w3.org/2000/svg"
   xmlns:sodipodi="http://sodipodi.sourceforge.net/DTD/sodipodi-0.dtd"
   xmlns:inkscape="http://www.inkscape.org/namespaces/inkscape"
   version="1.1"
   x="0px"
   y="0px"
   viewBox="0 0 100 125"
   enable-background="new 0 0 100 100"
   xml:space="preserve"
   id="svg2"
   inkscape:version="0.91 r13725"
   sodipodi:docname="USA Icon.svg"><metadata
     id="metadata18"><rdf:RDF><cc:Work
         rdf:about=""><dc:format>image/svg+xml</dc:format><dc:type
           rdf:resource="http://purl.org/dc/dcmitype/StillImage" /></cc:Work></rdf:RDF></metadata><defs
     id="defs16" /><sodipodi:namedview
     pagecolor="#ffffff"
     bordercolor="#666666"
     borderopacity="1"
     objecttolerance="10"
     gridtolerance="10"
     guidetolerance="10"
     inkscape:pageopacity="0"
     inkscape:pageshadow="2"
     inkscape:window-width="909"
     inkscape:window-height="684"
     id="namedview14"
     showgrid="false"
     inkscape:zoom="1.888"
     inkscape:cx="50"
     inkscape:cy="62.5"
     inkscape:window-x="0"
     inkscape:window-y="0"
     inkscape:window-maximized="0"
     inkscape:current-layer="svg2" /><g
     id="g4"
     transform="translate(0,11.652542)"><g
       id="g6"><path
         d="m 95,28.933 c 0,1.85 -0.651,3.673 -1.897,5.124 -0.018,0.026 -0.038,0.05 -0.059,0.073 -0.434,0.495 -0.671,1.132 -0.671,1.785 0,0.059 0.003,0.111 0.006,0.164 l 0,0.006 0.009,0.144 c 0.006,0.108 0.009,0.214 0.009,0.32 0,1.677 -0.824,3.257 -2.216,4.213 -1.753,1.202 -3.04,2.964 -3.656,4.998 l -0.686,2.275 c -0.232,0.765 -0.349,1.557 -0.349,2.354 0,0.325 0.021,0.651 0.059,0.973 0.05,0.407 0.076,0.818 0.073,1.222 0.003,2.052 -0.619,4.066 -1.791,5.772 l -1.952,2.841 c -0.838,1.22 -1.266,2.647 -1.266,4.084 0,0.885 0.161,1.774 0.493,2.621 l 0.595,1.53 c 0.437,1.117 0.654,2.295 0.654,3.471 0,1.114 -0.193,2.225 -0.586,3.286 -0.009,0.029 -0.018,0.059 -0.029,0.088 -0.211,0.569 -0.598,1.029 -1.058,1.331 -0.46,0.302 -0.994,0.454 -1.527,0.454 -0.422,0 -0.847,-0.094 -1.24,-0.293 -0.393,-0.196 -0.75,-0.501 -1.023,-0.891 l -3.521,-5.066 c -0.83,-1.193 -2.164,-1.938 -3.615,-2.014 l -1.24,-0.067 c -0.214,-0.009 -0.431,-0.015 -0.648,-0.015 -1.788,0 -3.556,0.39 -5.18,1.146 -1.612,0.753 -3.354,1.196 -5.127,1.31 l -4.556,0.293 c -0.437,0.029 -0.821,0.22 -1.102,0.519 -0.278,0.299 -0.449,0.692 -0.451,1.129 l -0.012,1.935 c -0.009,1.442 -0.982,2.7 -2.378,3.066 -0.27,0.073 -0.545,0.108 -0.815,0.108 -0.478,0 -0.947,-0.108 -1.375,-0.311 -0.428,-0.205 -0.812,-0.504 -1.12,-0.888 L 43.644,75.39 C 41.75,73.027 39.252,71.224 36.415,70.172 L 30.018,67.8 C 29.25,67.516 28.499,67.179 27.775,66.797 L 15.099,60.098 C 12.373,58.656 10.039,56.571 8.301,54.024 8.286,54.003 8.275,53.983 8.26,53.96 6.129,50.823 5,47.121 5,43.345 5,42.943 5.012,42.542 5.038,42.14 L 5.325,37.625 C 5.436,35.887 5.908,34.189 6.712,32.644 7.336,31.439 7.72,30.126 7.847,28.774 L 8.5,21.707 c 0.026,-0.299 0.185,-0.572 0.431,-0.745 0.243,-0.173 0.554,-0.229 0.844,-0.155 l 6.927,1.777 c 1.501,0.384 3.028,0.657 4.57,0.815 l 16.391,1.665 c 1.527,0.155 3.043,0.416 4.535,0.783 l 0.812,0.199 c 2.128,0.522 4.307,0.818 6.496,0.882 3.275,0.094 6.514,0.674 9.619,1.721 l 3.805,1.281 c 1.076,0.364 1.8,1.372 1.8,2.507 0,0.765 -0.331,1.492 -0.909,1.996 l 0,-0.003 -0.035,0.032 c -0.302,0.264 -0.46,0.633 -0.46,1.014 0,0.261 0.073,0.516 0.229,0.748 0.135,0.199 0.302,0.343 0.495,0.443 0.191,0.097 0.405,0.15 0.619,0.15 0.352,-0.003 0.689,-0.129 0.962,-0.407 l 0.481,-0.495 c 1.055,-1.085 2.495,-1.683 3.984,-1.683 0.287,0 0.578,0.023 0.868,0.07 1.516,0.237 2.638,1.53 2.668,3.066 l 0.023,1.463 c 0.006,0.278 0.114,0.545 0.308,0.745 0.223,0.235 0.507,0.343 0.8,0.343 0.161,0 0.32,-0.032 0.463,-0.1 0.144,-0.064 0.276,-0.161 0.39,-0.296 l 1.765,-2.111 c 0.437,-0.522 0.938,-0.985 1.492,-1.378 l 0.352,-0.252 c 0.859,-0.613 1.539,-1.442 1.973,-2.407 0.419,-0.935 1.187,-1.668 2.14,-2.04 l 0.891,-0.349 c 1.648,-0.645 3.072,-1.75 4.11,-3.181 l 1.064,-2.011 c 0.252,-0.484 0.633,-0.868 1.067,-1.117 0.434,-0.249 0.918,-0.369 1.395,-0.369 0.534,0 1.07,0.152 1.536,0.454 0.466,0.305 0.856,0.771 1.073,1.346 l 0.012,0.032 0,0.003 C 94.833,27.048 95,27.995 95,28.933 Z m -3.497,3.844 c 0.947,-1.082 1.445,-2.451 1.445,-3.843 0,-0.695 -0.123,-1.393 -0.378,-2.064 l -0.012,-0.032 c -0.067,-0.176 -0.161,-0.279 -0.279,-0.358 -0.117,-0.076 -0.267,-0.12 -0.413,-0.12 -0.135,0 -0.264,0.035 -0.369,0.097 -0.108,0.064 -0.202,0.15 -0.279,0.296 l -1.088,2.055 c -0.003,0.009 -0.006,0.015 -0.012,0.021 -0.021,0.041 -0.044,0.079 -0.07,0.117 -1.272,1.779 -3.034,3.151 -5.072,3.952 l -0.891,0.349 c -0.451,0.176 -0.818,0.525 -1.014,0.967 -0.583,1.299 -1.498,2.416 -2.656,3.242 l -0.352,0.249 c -0.41,0.293 -0.783,0.636 -1.108,1.023 l -1.768,2.114 c -0.311,0.372 -0.695,0.657 -1.111,0.847 -0.416,0.188 -0.865,0.281 -1.313,0.281 -0.824,0.003 -1.665,-0.325 -2.287,-0.979 -0.545,-0.572 -0.859,-1.331 -0.871,-2.125 l -0.026,-1.463 c -0.009,-0.539 -0.405,-0.994 -0.935,-1.076 -0.185,-0.029 -0.366,-0.044 -0.548,-0.044 -0.938,0 -1.847,0.378 -2.512,1.061 L 67.1,37.839 c -0.665,0.689 -1.557,1.032 -2.43,1.029 -0.536,0 -1.073,-0.126 -1.563,-0.378 -0.487,-0.252 -0.923,-0.63 -1.252,-1.12 -0.39,-0.578 -0.58,-1.24 -0.58,-1.894 0,-0.478 0.1,-0.95 0.296,-1.39 0.196,-0.437 0.487,-0.841 0.871,-1.173 l 0.035,-0.029 0,-0.003 c 0.129,-0.111 0.202,-0.276 0.202,-0.446 0,-0.252 -0.161,-0.481 -0.402,-0.56 L 58.469,30.591 C 55.558,29.609 52.518,29.067 49.448,28.976 47.112,28.909 44.79,28.595 42.521,28.038 L 41.712,27.839 C 40.311,27.496 38.889,27.25 37.455,27.106 L 21.067,25.438 C 19.422,25.271 17.792,24.981 16.192,24.57 L 10.431,23.092 9.89,28.965 C 9.74,30.577 9.28,32.149 8.533,33.588 7.862,34.881 7.469,36.3 7.375,37.757 l -0.287,4.512 0,0.003 c -0.023,0.358 -0.035,0.715 -0.035,1.073 0,3.392 1.02,6.713 2.94,9.528 1.551,2.272 3.632,4.131 6.063,5.415 l 12.676,6.699 c 0.645,0.34 1.313,0.639 1.996,0.891 l 6.397,2.372 c 3.187,1.181 5.992,3.207 8.118,5.86 l 2.111,2.636 c 0.217,0.273 0.548,0.428 0.891,0.428 0.097,0 0.193,-0.015 0.29,-0.038 0.498,-0.132 0.847,-0.583 0.85,-1.096 l 0.012,-1.935 c 0.006,-0.973 0.39,-1.867 1.011,-2.527 0.621,-0.66 1.492,-1.093 2.463,-1.155 l 4.556,-0.293 c 1.521,-0.1 3.011,-0.481 4.392,-1.123 1.897,-0.885 3.961,-1.34 6.048,-1.34 0.252,0 0.504,0.006 0.759,0.018 l 1.237,0.067 c 2.084,0.108 4.002,1.179 5.192,2.891 l 3.521,5.069 c 0.079,0.111 0.164,0.182 0.261,0.229 0.094,0.05 0.202,0.073 0.317,0.073 0.144,0 0.287,-0.041 0.399,-0.117 0.117,-0.076 0.205,-0.176 0.267,-0.34 0.322,-0.853 0.484,-1.75 0.484,-2.65 0,-0.923 -0.17,-1.85 -0.513,-2.723 l -0.595,-1.533 c -0.425,-1.088 -0.633,-2.228 -0.633,-3.365 0,-1.847 0.551,-3.679 1.627,-5.245 l 1.952,-2.844 c 0.938,-1.36 1.431,-2.97 1.434,-4.608 -0.003,-0.325 -0.021,-0.651 -0.062,-0.976 0,-0.015 -0.003,-0.029 -0.003,-0.044 0,-0.006 0,-0.012 0,-0.018 -0.047,-0.387 -0.07,-0.774 -0.07,-1.158 0,-0.997 0.147,-1.991 0.437,-2.946 l 0.686,-2.278 c 0.75,-2.48 2.322,-4.629 4.459,-6.095 0.833,-0.572 1.325,-1.519 1.325,-2.521 0,-0.064 0,-0.129 -0.006,-0.193 l -0.009,-0.141 0.003,0.006 c -0.009,-0.106 -0.012,-0.208 -0.012,-0.305 0,-1.12 0.396,-2.207 1.123,-3.066 0.015,-0.031 0.035,-0.054 0.056,-0.077 z"
         id="path8"
         inkscape:connector-curvature="0"
         style="fill:#000000" /></g></g></svg>